<mxfile host="app.diagrams.net" modified="2023-02-12T05:41:37.414Z" agent="5.0 (Windows NT 10.0; Win64; x64) AppleWebKit/537.36 (KHTML, like Gecko) Chrome/109.0.0.0 Safari/537.36" etag="o9Npaps8cwVROoK54kpw" version="20.8.16" type="github">
  <diagram name="Page-1" id="2YBvvXClWsGukQMizWep">
    <mxGraphModel dx="1432" dy="804" grid="1" gridSize="10" guides="1" tooltips="1" connect="1" arrows="1" fold="1" page="0" pageScale="1" pageWidth="850" pageHeight="1100" math="0" shadow="0">
      <root>
        <mxCell id="0" />
        <mxCell id="1" parent="0" />
        <mxCell id="LUhuThxledi12FxO1uYo-3" value="" style="rounded=0;whiteSpace=wrap;html=1;strokeWidth=2;fontSize=15;" parent="1" vertex="1">
          <mxGeometry x="20" y="180" width="130" height="85" as="geometry" />
        </mxCell>
        <mxCell id="LUhuThxledi12FxO1uYo-5" value="Customer" style="shape=umlActor;verticalLabelPosition=bottom;verticalAlign=top;html=1;outlineConnect=0;strokeWidth=2;fontSize=15;" parent="1" vertex="1">
          <mxGeometry x="72.5" y="190" width="25" height="37.5" as="geometry" />
        </mxCell>
        <mxCell id="LUhuThxledi12FxO1uYo-8" value="" style="rounded=0;whiteSpace=wrap;html=1;strokeWidth=2;fontSize=15;" parent="1" vertex="1">
          <mxGeometry x="260" y="180" width="150" height="85" as="geometry" />
        </mxCell>
        <mxCell id="LUhuThxledi12FxO1uYo-9" value="Online Store Website" style="text;html=1;strokeColor=none;fillColor=none;align=center;verticalAlign=middle;whiteSpace=wrap;rounded=0;movable=1;resizable=1;rotatable=1;deletable=1;editable=1;connectable=1;strokeWidth=2;fontSize=15;" parent="1" vertex="1">
          <mxGeometry x="290" y="197.5" width="90" height="52.5" as="geometry" />
        </mxCell>
        <mxCell id="LUhuThxledi12FxO1uYo-10" value="" style="rounded=0;whiteSpace=wrap;html=1;strokeWidth=2;fontSize=15;" parent="1" vertex="1">
          <mxGeometry x="520" y="180" width="130" height="85" as="geometry" />
        </mxCell>
        <mxCell id="LUhuThxledi12FxO1uYo-51" value="Payment gateway" style="text;html=1;strokeColor=none;fillColor=none;align=center;verticalAlign=middle;whiteSpace=wrap;rounded=0;movable=1;resizable=1;rotatable=1;deletable=1;editable=1;connectable=1;strokeWidth=2;fontSize=15;" parent="1" vertex="1">
          <mxGeometry x="545" y="197.5" width="80" height="52.5" as="geometry" />
        </mxCell>
        <mxCell id="LUhuThxledi12FxO1uYo-52" value="" style="rounded=0;whiteSpace=wrap;html=1;strokeWidth=2;fontSize=15;" parent="1" vertex="1">
          <mxGeometry x="730" y="180" width="130" height="85" as="geometry" />
        </mxCell>
        <mxCell id="LUhuThxledi12FxO1uYo-53" value="Inventory" style="text;html=1;strokeColor=none;fillColor=none;align=center;verticalAlign=middle;whiteSpace=wrap;rounded=0;movable=1;resizable=1;rotatable=1;deletable=1;editable=1;connectable=1;strokeWidth=2;fontSize=15;" parent="1" vertex="1">
          <mxGeometry x="757.5" y="197.5" width="75" height="42.5" as="geometry" />
        </mxCell>
        <mxCell id="LUhuThxledi12FxO1uYo-54" value="" style="rounded=0;whiteSpace=wrap;html=1;strokeWidth=2;fillColor=none;strokeColor=default;" parent="1" vertex="1">
          <mxGeometry x="930" y="180" width="130" height="85" as="geometry" />
        </mxCell>
        <mxCell id="LUhuThxledi12FxO1uYo-55" value="Shipping Department" style="text;html=1;strokeColor=none;fillColor=none;align=center;verticalAlign=middle;whiteSpace=wrap;rounded=0;movable=1;resizable=1;rotatable=1;deletable=1;editable=1;connectable=1;strokeWidth=2;fontSize=15;" parent="1" vertex="1">
          <mxGeometry x="965" y="197.5" width="65" height="42.5" as="geometry" />
        </mxCell>
        <mxCell id="LUhuThxledi12FxO1uYo-60" value="&lt;font style=&quot;font-size: 15px;&quot;&gt;Open Website&lt;/font&gt;" style="text;html=1;strokeColor=none;fillColor=none;align=center;verticalAlign=middle;whiteSpace=wrap;rounded=0;strokeWidth=2;fontSize=15;" parent="1" vertex="1">
          <mxGeometry x="150" y="265" width="110" height="30" as="geometry" />
        </mxCell>
        <mxCell id="LUhuThxledi12FxO1uYo-62" value="&lt;font style=&quot;font-size: 15px;&quot;&gt;Display products&lt;/font&gt;" style="text;html=1;strokeColor=none;fillColor=none;align=center;verticalAlign=middle;whiteSpace=wrap;rounded=0;strokeWidth=2;fontSize=15;" parent="1" vertex="1">
          <mxGeometry x="150" y="295" width="125" height="30" as="geometry" />
        </mxCell>
        <mxCell id="LUhuThxledi12FxO1uYo-68" value="&lt;font style=&quot;font-size: 15px;&quot;&gt;Add items to cart&lt;/font&gt;" style="text;html=1;strokeColor=none;fillColor=none;align=center;verticalAlign=middle;whiteSpace=wrap;rounded=0;strokeWidth=2;fontSize=15;" parent="1" vertex="1">
          <mxGeometry x="152.5" y="325" width="125" height="30" as="geometry" />
        </mxCell>
        <mxCell id="LUhuThxledi12FxO1uYo-69" value="" style="shape=link;html=1;rounded=1;fontSize=15;width=15;strokeWidth=2;fillColor=#d5e8d4;strokeColor=#82b366;shadow=1;" parent="1" edge="1">
          <mxGeometry width="100" relative="1" as="geometry">
            <mxPoint x="334.57" y="265" as="sourcePoint" />
            <mxPoint x="335" y="760" as="targetPoint" />
          </mxGeometry>
        </mxCell>
        <mxCell id="LUhuThxledi12FxO1uYo-72" value="" style="shape=link;html=1;rounded=1;fontSize=15;width=15;strokeWidth=2;fillColor=#dae8fc;strokeColor=#6c8ebf;shadow=1;" parent="1" edge="1">
          <mxGeometry width="100" relative="1" as="geometry">
            <mxPoint x="84.6400000000001" y="265" as="sourcePoint" />
            <mxPoint x="85" y="760" as="targetPoint" />
          </mxGeometry>
        </mxCell>
        <mxCell id="LUhuThxledi12FxO1uYo-73" value="" style="shape=link;html=1;rounded=1;fontSize=15;width=15;strokeWidth=2;fillColor=#ffe6cc;strokeColor=#d79b00;shadow=1;" parent="1" edge="1">
          <mxGeometry width="100" relative="1" as="geometry">
            <mxPoint x="584.64" y="265" as="sourcePoint" />
            <mxPoint x="585.0000000000001" y="640" as="targetPoint" />
          </mxGeometry>
        </mxCell>
        <mxCell id="LUhuThxledi12FxO1uYo-74" value="" style="shape=link;html=1;rounded=1;fontSize=15;width=15;strokeWidth=2;fillColor=#f8cecc;strokeColor=#b85450;shadow=1;" parent="1" edge="1">
          <mxGeometry width="100" relative="1" as="geometry">
            <mxPoint x="794.5699999999999" y="265" as="sourcePoint" />
            <mxPoint x="795" y="710" as="targetPoint" />
          </mxGeometry>
        </mxCell>
        <mxCell id="LUhuThxledi12FxO1uYo-75" value="" style="shape=link;html=1;rounded=1;fontSize=15;width=15;strokeWidth=2;fillColor=#e1d5e7;strokeColor=#9673a6;shadow=1;" parent="1" edge="1">
          <mxGeometry width="100" relative="1" as="geometry">
            <mxPoint x="1000" y="265" as="sourcePoint" />
            <mxPoint x="1000" y="760" as="targetPoint" />
          </mxGeometry>
        </mxCell>
        <mxCell id="LUhuThxledi12FxO1uYo-76" value="" style="endArrow=classic;html=1;rounded=0;fontSize=15;strokeWidth=2;fillColor=#dae8fc;strokeColor=#6c8ebf;" parent="1" edge="1">
          <mxGeometry width="50" height="50" relative="1" as="geometry">
            <mxPoint x="90" y="290" as="sourcePoint" />
            <mxPoint x="330" y="290" as="targetPoint" />
          </mxGeometry>
        </mxCell>
        <mxCell id="LUhuThxledi12FxO1uYo-77" value="" style="endArrow=classic;html=1;rounded=0;fontSize=15;strokeWidth=2;fillColor=#d5e8d4;strokeColor=#82b366;" parent="1" edge="1">
          <mxGeometry width="50" height="50" relative="1" as="geometry">
            <mxPoint x="330" y="320" as="sourcePoint" />
            <mxPoint x="90" y="320" as="targetPoint" />
          </mxGeometry>
        </mxCell>
        <mxCell id="LUhuThxledi12FxO1uYo-78" value="" style="endArrow=classic;html=1;rounded=0;fontSize=15;strokeWidth=2;fillColor=#dae8fc;strokeColor=#6c8ebf;" parent="1" edge="1">
          <mxGeometry width="50" height="50" relative="1" as="geometry">
            <mxPoint x="90" y="350" as="sourcePoint" />
            <mxPoint x="330" y="350" as="targetPoint" />
          </mxGeometry>
        </mxCell>
        <mxCell id="LUhuThxledi12FxO1uYo-79" value="" style="endArrow=classic;html=1;rounded=0;fontSize=15;strokeWidth=2;fillColor=#dae8fc;strokeColor=#6c8ebf;" parent="1" edge="1">
          <mxGeometry width="50" height="50" relative="1" as="geometry">
            <mxPoint x="90" y="380" as="sourcePoint" />
            <mxPoint x="330" y="380" as="targetPoint" />
          </mxGeometry>
        </mxCell>
        <mxCell id="LUhuThxledi12FxO1uYo-80" value="&lt;font style=&quot;font-size: 15px;&quot;&gt;Checkout&lt;/font&gt;" style="text;html=1;strokeColor=none;fillColor=none;align=center;verticalAlign=middle;whiteSpace=wrap;rounded=0;strokeWidth=2;fontSize=15;" parent="1" vertex="1">
          <mxGeometry x="170" y="355" width="90" height="30" as="geometry" />
        </mxCell>
        <mxCell id="LUhuThxledi12FxO1uYo-81" value="" style="endArrow=classic;html=1;rounded=0;fontSize=15;strokeWidth=2;fillColor=#d5e8d4;strokeColor=#82b366;" parent="1" edge="1">
          <mxGeometry width="50" height="50" relative="1" as="geometry">
            <mxPoint x="330" y="410" as="sourcePoint" />
            <mxPoint x="90" y="410" as="targetPoint" />
          </mxGeometry>
        </mxCell>
        <mxCell id="LUhuThxledi12FxO1uYo-82" value="&lt;font style=&quot;font-size: 15px;&quot;&gt;Display order summary&lt;/font&gt;" style="text;html=1;strokeColor=none;fillColor=none;align=center;verticalAlign=middle;whiteSpace=wrap;rounded=0;strokeWidth=2;fontSize=15;" parent="1" vertex="1">
          <mxGeometry x="132.5" y="385" width="160" height="30" as="geometry" />
        </mxCell>
        <mxCell id="LUhuThxledi12FxO1uYo-83" value="" style="endArrow=classic;html=1;rounded=0;fontSize=15;strokeWidth=2;fillColor=#dae8fc;strokeColor=#6c8ebf;" parent="1" edge="1">
          <mxGeometry width="50" height="50" relative="1" as="geometry">
            <mxPoint x="90" y="440" as="sourcePoint" />
            <mxPoint x="330" y="440" as="targetPoint" />
          </mxGeometry>
        </mxCell>
        <mxCell id="LUhuThxledi12FxO1uYo-84" value="&lt;font style=&quot;font-size: 15px;&quot;&gt;Login/Create account&lt;/font&gt;" style="text;html=1;strokeColor=none;fillColor=none;align=center;verticalAlign=middle;whiteSpace=wrap;rounded=0;strokeWidth=2;fontSize=15;" parent="1" vertex="1">
          <mxGeometry x="130" y="415" width="170" height="30" as="geometry" />
        </mxCell>
        <mxCell id="LUhuThxledi12FxO1uYo-85" value="" style="endArrow=classic;html=1;rounded=0;fontSize=15;strokeWidth=2;fillColor=#d5e8d4;strokeColor=#82b366;" parent="1" edge="1">
          <mxGeometry width="50" height="50" relative="1" as="geometry">
            <mxPoint x="330" y="470" as="sourcePoint" />
            <mxPoint x="90" y="470" as="targetPoint" />
          </mxGeometry>
        </mxCell>
        <mxCell id="LUhuThxledi12FxO1uYo-86" value="&lt;font style=&quot;font-size: 15px;&quot;&gt;Confirm shipping address&lt;/font&gt;" style="text;html=1;strokeColor=none;fillColor=none;align=center;verticalAlign=middle;whiteSpace=wrap;rounded=0;strokeWidth=2;fontSize=15;" parent="1" vertex="1">
          <mxGeometry x="130" y="445" width="180" height="30" as="geometry" />
        </mxCell>
        <mxCell id="LUhuThxledi12FxO1uYo-87" value="" style="endArrow=classic;html=1;rounded=0;fontSize=15;strokeWidth=2;fillColor=#d5e8d4;strokeColor=#82b366;" parent="1" edge="1">
          <mxGeometry width="50" height="50" relative="1" as="geometry">
            <mxPoint x="330" y="500" as="sourcePoint" />
            <mxPoint x="90" y="500" as="targetPoint" />
          </mxGeometry>
        </mxCell>
        <mxCell id="LUhuThxledi12FxO1uYo-88" value="&lt;font style=&quot;font-size: 15px;&quot;&gt;Select Payment Method&lt;/font&gt;" style="text;html=1;strokeColor=none;fillColor=none;align=center;verticalAlign=middle;whiteSpace=wrap;rounded=0;strokeWidth=2;fontSize=15;" parent="1" vertex="1">
          <mxGeometry x="130" y="475" width="170" height="30" as="geometry" />
        </mxCell>
        <mxCell id="LUhuThxledi12FxO1uYo-89" value="" style="endArrow=classic;html=1;rounded=0;fontSize=15;strokeWidth=2;fillColor=#d5e8d4;strokeColor=#82b366;" parent="1" edge="1">
          <mxGeometry width="50" height="50" relative="1" as="geometry">
            <mxPoint x="340" y="520" as="sourcePoint" />
            <mxPoint x="580" y="520" as="targetPoint" />
          </mxGeometry>
        </mxCell>
        <mxCell id="LUhuThxledi12FxO1uYo-90" value="&lt;font style=&quot;font-size: 15px;&quot;&gt;Validate payment&lt;/font&gt;" style="text;html=1;strokeColor=none;fillColor=none;align=center;verticalAlign=middle;whiteSpace=wrap;rounded=0;strokeWidth=2;fontSize=15;" parent="1" vertex="1">
          <mxGeometry x="395" y="490" width="125" height="30" as="geometry" />
        </mxCell>
        <mxCell id="LUhuThxledi12FxO1uYo-92" value="" style="endArrow=classic;html=1;rounded=0;fontSize=15;strokeWidth=2;fillColor=#ffe6cc;strokeColor=#d79b00;" parent="1" edge="1">
          <mxGeometry width="50" height="50" relative="1" as="geometry">
            <mxPoint x="580" y="560" as="sourcePoint" />
            <mxPoint x="340" y="560" as="targetPoint" />
          </mxGeometry>
        </mxCell>
        <mxCell id="LUhuThxledi12FxO1uYo-93" value="&lt;font style=&quot;font-size: 15px;&quot;&gt;Confirm payment&lt;/font&gt;" style="text;html=1;strokeColor=none;fillColor=none;align=center;verticalAlign=middle;whiteSpace=wrap;rounded=0;strokeWidth=2;fontSize=15;" parent="1" vertex="1">
          <mxGeometry x="395" y="530" width="125" height="30" as="geometry" />
        </mxCell>
        <mxCell id="LUhuThxledi12FxO1uYo-94" value="" style="endArrow=classic;html=1;rounded=0;fontSize=15;strokeWidth=2;fillColor=#d5e8d4;strokeColor=#82b366;" parent="1" edge="1">
          <mxGeometry width="50" height="50" relative="1" as="geometry">
            <mxPoint x="330" y="600" as="sourcePoint" />
            <mxPoint x="90" y="600" as="targetPoint" />
          </mxGeometry>
        </mxCell>
        <mxCell id="LUhuThxledi12FxO1uYo-95" value="&lt;font style=&quot;font-size: 15px;&quot;&gt;Confirm Order&lt;/font&gt;" style="text;html=1;strokeColor=none;fillColor=none;align=center;verticalAlign=middle;whiteSpace=wrap;rounded=0;strokeWidth=2;fontSize=15;" parent="1" vertex="1">
          <mxGeometry x="147.5" y="570" width="125" height="30" as="geometry" />
        </mxCell>
        <mxCell id="LUhuThxledi12FxO1uYo-96" value="" style="endArrow=classic;html=1;rounded=0;fontSize=15;strokeWidth=2;fillColor=#d5e8d4;strokeColor=#82b366;" parent="1" edge="1">
          <mxGeometry width="50" height="50" relative="1" as="geometry">
            <mxPoint x="330" y="640" as="sourcePoint" />
            <mxPoint x="90" y="640" as="targetPoint" />
          </mxGeometry>
        </mxCell>
        <mxCell id="LUhuThxledi12FxO1uYo-97" value="&lt;font style=&quot;font-size: 15px;&quot;&gt;Send email confirmation&lt;/font&gt;" style="text;html=1;strokeColor=none;fillColor=none;align=center;verticalAlign=middle;whiteSpace=wrap;rounded=0;strokeWidth=2;fontSize=15;" parent="1" vertex="1">
          <mxGeometry x="125" y="610" width="170" height="30" as="geometry" />
        </mxCell>
        <mxCell id="LUhuThxledi12FxO1uYo-98" value="" style="endArrow=classic;html=1;rounded=0;fontSize=15;strokeWidth=2;fillColor=#d5e8d4;strokeColor=#82b366;" parent="1" edge="1">
          <mxGeometry width="50" height="50" relative="1" as="geometry">
            <mxPoint x="340" y="680" as="sourcePoint" />
            <mxPoint x="790" y="680" as="targetPoint" />
          </mxGeometry>
        </mxCell>
        <mxCell id="LUhuThxledi12FxO1uYo-100" value="&lt;font style=&quot;font-size: 15px;&quot;&gt;Update Inventory&lt;/font&gt;" style="text;html=1;strokeColor=none;fillColor=none;align=center;verticalAlign=middle;whiteSpace=wrap;rounded=0;strokeWidth=2;fontSize=15;" parent="1" vertex="1">
          <mxGeometry x="630" y="640" width="125" height="30" as="geometry" />
        </mxCell>
        <mxCell id="LUhuThxledi12FxO1uYo-103" value="" style="endArrow=classic;html=1;rounded=0;fontSize=15;strokeWidth=2;fillColor=#d5e8d4;strokeColor=#82b366;" parent="1" edge="1">
          <mxGeometry width="50" height="50" relative="1" as="geometry">
            <mxPoint x="340" y="740" as="sourcePoint" />
            <mxPoint x="990" y="740" as="targetPoint" />
          </mxGeometry>
        </mxCell>
        <mxCell id="LUhuThxledi12FxO1uYo-104" value="&lt;font style=&quot;font-size: 15px;&quot;&gt;Send order details&lt;/font&gt;" style="text;html=1;strokeColor=none;fillColor=none;align=center;verticalAlign=middle;whiteSpace=wrap;rounded=0;strokeWidth=2;fontSize=15;" parent="1" vertex="1">
          <mxGeometry x="840" y="710" width="125" height="30" as="geometry" />
        </mxCell>
      </root>
    </mxGraphModel>
  </diagram>
</mxfile>
